<?xml version="1.0" encoding="utf-8"?>
<!-- Generator: Adobe Illustrator 25.4.1, SVG Export Plug-In . SVG Version: 6.00 Build 0)  -->
<svg version="1.1" id="Layer_1" xmlns="http://www.w3.org/2000/svg" xmlns:xlink="http://www.w3.org/1999/xlink" x="0px" y="0px"
	 viewBox="0 0 64 64" style="enable-background:new 0 0 64 64;" xml:space="preserve">
<style type="text/css">
	.st0{fill:none;stroke:#231F20;stroke-width:2;stroke-linecap:round;stroke-linejoin:round;stroke-miterlimit:10;}
</style>
<g>
	<g>
		<path class="st0" d="M34.89,35.87c0,0-0.86-2.77-2.9-4.25c1.15-0.91,2.85-1.63,5.35-1.55c8.56,0.29,9.28,9.64,6.54,14.63
			c-2.77,5.05-3.43,6.06-3.8,11.91c-0.36,5.65-5.37,5.4-5.37-0.9c0-5.56-2.6-5.25-2.6-5.25s-2.85-0.31-2.85,5.25
			c0,6.35-5.02,6.55-5.38,0.9c-0.38-5.85-1.29-7.18-3.79-11.91c-2.66-5.03-2.02-14.34,6.54-14.63c2.5-0.08,4.21,0.64,5.35,1.55"/>
	</g>
	<line class="st0" x1="19.23" y1="42.54" x2="6.04" y2="42.54"/>
	<line class="st0" x1="44.77" y1="42.54" x2="58.1" y2="42.54"/>
	<path class="st0" d="M35.69,9.46V2.89h-7.37v6.57c0,1.22-0.99,2.2-2.2,2.2l0,0c-1.87,0-3.63,0.88-4.76,2.36L10.84,25.57
		c-1.27,1.65-1.63,3.82-0.97,5.79l1.88,5.63c0.23,0.68,0.81,1.22,1.52,1.29c1.08,0.11,1.94-0.73,1.94-1.75c0-0.07,0-0.15-0.01-0.22
		l-0.69-5.43c-0.13-1.03,0.14-2.08,0.77-2.91l8.17-8.55c0.87-1.15,2.23-1.83,3.67-1.83h9.78c1.44,0,2.8,0.68,3.67,1.83l8.16,8.55
		c0.63,0.83,0.91,1.88,0.78,2.91l-0.69,5.43c-0.14,1.05,0.68,1.98,1.75,1.98c0.76,0,1.43-0.48,1.67-1.2l1.91-5.73
		c0.66-1.97,0.29-4.14-0.97-5.79L42.66,14.02c-1.13-1.48-2.89-2.36-4.76-2.36h-0.01C36.67,11.66,35.69,10.68,35.69,9.46z"/>
</g>
</svg>
