<?xml version="1.0" encoding="utf-8"?>
<!-- Generator: Adobe Illustrator 25.4.1, SVG Export Plug-In . SVG Version: 6.00 Build 0)  -->
<svg version="1.1" id="Layer_1" xmlns="http://www.w3.org/2000/svg" xmlns:xlink="http://www.w3.org/1999/xlink" x="0px" y="0px"
	 viewBox="0 0 64 64" style="enable-background:new 0 0 64 64;" xml:space="preserve">
<style type="text/css">
	.st0{fill:none;stroke:#231F20;stroke-width:2;stroke-linecap:round;stroke-linejoin:round;stroke-miterlimit:10;}
</style>
<g>
	<g>
		<path class="st0" d="M10.44,25.81C8.43,17.03,11.29,5.86,23.61,5.45c4.35-0.14,7.31,1.12,9.29,2.69"/>
		<path class="st0" d="M37.94,15.51c0,0-1.5-4.8-5.04-7.37c1.99-1.59,4.95-2.83,9.28-2.69c4.18,0.14,7.28,1.52,9.47,3.63"/>
		<path class="st0" d="M54.39,12.93c2.62,5.54,1.86,12.96-0.85,17.91c-4.82,8.77-5.95,10.52-6.6,20.67
			c-0.62,9.81-9.31,9.37-9.31-1.56c0-9.64-4.51-9.11-4.51-9.11s-4.95-0.53-4.95,9.11c0,11.03-8.71,11.37-9.33,1.56
			c-0.65-10.11-2.23-12.44-6.53-20.58"/>
		<path class="st0" d="M19.22,9.93c0,0-2.64,0.92-4.12,4.44"/>
	</g>
	<path class="st0" d="M52.86,6.36c0,0,0.59,4.89,6.2,4.89c0,0-6.2,0.16-6.2,5.21c0-5.05-6.2-5.21-6.2-5.21
		C52.27,11.25,52.86,6.36,52.86,6.36"/>
	<path class="st0" d="M40.52,29.33c0,0,0.53,4.41,5.59,4.41c0,0-5.59,0.14-5.59,4.7c0-4.56-5.59-4.7-5.59-4.7
		C39.99,33.75,40.52,29.33,40.52,29.33"/>
	<path class="st0" d="M11.37,23.42c0,0,0.61,5.07,6.42,5.07c0,0-6.42,0.17-6.42,5.4c0-5.24-6.42-5.4-6.42-5.4
		C10.76,28.49,11.37,23.42,11.37,23.42"/>
</g>
</svg>
