<?xml version="1.0" encoding="utf-8"?>
<!-- Generator: Adobe Illustrator 25.4.1, SVG Export Plug-In . SVG Version: 6.00 Build 0)  -->
<svg version="1.1" id="Layer_1" xmlns="http://www.w3.org/2000/svg" xmlns:xlink="http://www.w3.org/1999/xlink" x="0px" y="0px"
	 viewBox="0 0 64 64" style="enable-background:new 0 0 64 64;" xml:space="preserve">
<style type="text/css">
	.st0{fill:none;stroke:#231F20;stroke-width:2;stroke-linecap:round;stroke-linejoin:round;stroke-miterlimit:10;}
</style>
<g>
	<path class="st0" d="M46.19,31.88c-3.53,6.54-5.18,9.29-5.42,18.5c-0.27,10.51-8.43,9.25-8.43,9.25s1.85-4.26,0.68-10.76
		c-1.36-7.53-5.24-8.89-6.27-9.11c-1.03,0.22-4.91,1.58-6.27,9.11c-1.17,6.5,0.69,10.76,0.69,10.76s-8.17,1.26-8.44-9.25
		c-0.26-10.17-2.24-12.46-6.58-20.68C1.54,20.97,2.64,4.81,17.5,4.32c1.93-0.07,3.58,0.62,5,1.53c2.59,1.67,5.98,1.68,8.58,0
		c1.39-0.9,3.03-1.58,4.92-1.53c4.76,0.16,8.12,1.93,10.32,4.55"/>
	
		<ellipse transform="matrix(0.9735 -0.2286 0.2286 0.9735 -3.3936 11.4784)" class="st0" cx="47.85" cy="20.39" rx="11.61" ry="11.61"/>
	<line class="st0" x1="43.35" y1="16.19" x2="52.35" y2="24.59"/>
	<line class="st0" x1="52.35" y1="16.19" x2="43.35" y2="24.59"/>
	<path class="st0" d="M12.24,9.79c0,0-2.84,0.88-4.11,6.07"/>
</g>
</svg>
