<?xml version="1.0" encoding="utf-8"?>
<!-- Generator: Adobe Illustrator 25.4.1, SVG Export Plug-In . SVG Version: 6.00 Build 0)  -->
<svg version="1.1" id="Layer_1" xmlns="http://www.w3.org/2000/svg" xmlns:xlink="http://www.w3.org/1999/xlink" x="0px" y="0px"
	 viewBox="0 0 64 64" style="enable-background:new 0 0 64 64;" xml:space="preserve">
<style type="text/css">
	.st0{fill:none;stroke:#231F20;stroke-width:2;stroke-linecap:round;stroke-linejoin:round;stroke-miterlimit:10;}
</style>
<g>
	<path class="st0" d="M53.76,26.69H10.25C7.12,17.7,9.3,4.41,22.75,3.97c1.93-0.07,3.58,0.62,5,1.53c2.59,1.67,5.98,1.68,8.58,0
		c1.39-0.9,3.03-1.58,4.92-1.53C54.71,4.41,56.89,17.7,53.76,26.69z"/>
	<path class="st0" d="M32.38,60.04h-0.75c-0.86,0-1.61-0.58-1.84-1.41l-8.65-31.95h21.73l-8.65,31.95
		C33.99,59.46,33.24,60.04,32.38,60.04z"/>
	<line class="st0" x1="19.92" y1="31.12" x2="44.08" y2="31.12"/>
	<line class="st0" x1="20.83" y1="36.18" x2="43.17" y2="36.18"/>
	<line class="st0" x1="22.92" y1="41.56" x2="41.08" y2="41.56"/>
	<line class="st0" x1="24.62" y1="46.87" x2="39.38" y2="46.87"/>
	<line class="st0" x1="25.85" y1="52.18" x2="38.15" y2="52.18"/>
	<line class="st0" x1="27.84" y1="56.91" x2="36.16" y2="56.91"/>
	<path class="st0" d="M30.02,6.49c0,0,3.84,1.67,5.53,5.16"/>
</g>
</svg>
