<?xml version="1.0" encoding="utf-8"?>
<!-- Generator: Adobe Illustrator 25.4.1, SVG Export Plug-In . SVG Version: 6.00 Build 0)  -->
<svg version="1.1" id="Layer_1" xmlns="http://www.w3.org/2000/svg" xmlns:xlink="http://www.w3.org/1999/xlink" x="0px" y="0px"
	 viewBox="0 0 64 64" style="enable-background:new 0 0 64 64;" xml:space="preserve">
<style type="text/css">
	.st0{fill:none;stroke:#231F20;stroke-width:2;stroke-linecap:round;stroke-linejoin:round;stroke-miterlimit:10;}
</style>
<g>
	<path class="st0" d="M42.83,60.84H21.17c-0.97,0-1.73-0.82-1.66-1.79l2.93-41.21c0.07-0.87,0.79-1.54,1.66-1.54H39.9
		c0.87,0,1.59,0.67,1.66,1.54l2.93,41.21C44.57,60.02,43.8,60.84,42.83,60.84z"/>
	<path class="st0" d="M37.69,3.16H26.31c-0.94,0-1.7,0.76-1.7,1.7v11.45h14.78V4.86C39.39,3.92,38.63,3.16,37.69,3.16z"/>
	<line class="st0" x1="19.77" y1="55.6" x2="44.23" y2="55.6"/>
	<line class="st0" x1="25.93" y1="25.8" x2="24.62" y2="46.1"/>
</g>
</svg>
