<?xml version="1.0" encoding="utf-8"?>
<!-- Generator: Adobe Illustrator 25.4.1, SVG Export Plug-In . SVG Version: 6.00 Build 0)  -->
<svg version="1.1" id="Layer_1" xmlns="http://www.w3.org/2000/svg" xmlns:xlink="http://www.w3.org/1999/xlink" x="0px" y="0px"
	 viewBox="0 0 64 64" style="enable-background:new 0 0 64 64;" xml:space="preserve">
<style type="text/css">
	.st0{fill:none;stroke:#231F20;stroke-width:2;stroke-linecap:round;stroke-linejoin:round;stroke-miterlimit:10;}
</style>
<path class="st0" d="M34.81,32.17h-5.62c-10.36,0-18.76,8.4-18.76,18.76v9.22h43.14v-9.22C53.57,40.57,45.17,32.17,34.81,32.17z"/>
<circle class="st0" cx="32" cy="18.15" r="14.01"/>
<path class="st0" d="M25.82,45.89c0,0-4.23-3.66-3.35-12.48"/>
<circle class="st0" cx="27.14" cy="48.54" r="2.96"/>
<path class="st0" d="M40.08,48.54c7.04-6.07,6.59-12.14,6.59-12.14"/>
<polyline class="st0" points="36.45,32.17 32.3,37.7 28.16,32.17 "/>
<line class="st0" x1="42.13" y1="55.7" x2="42.13" y2="60.15"/>
<line class="st0" x1="32.3" y1="37.7" x2="35.75" y2="42.22"/>
<path class="st0" d="M18.1,16.34c0,0,13.52,1.81,16.65-8.42"/>
<path class="st0" d="M45.29,13.7c-6.92,1.54-11.88-2.88-11.88-2.88"/>
<line class="st0" x1="21.29" y1="56.11" x2="21.29" y2="60.15"/>
</svg>
