<?xml version="1.0" encoding="utf-8"?>
<!-- Generator: Adobe Illustrator 25.4.1, SVG Export Plug-In . SVG Version: 6.00 Build 0)  -->
<svg version="1.1" id="Layer_1" xmlns="http://www.w3.org/2000/svg" xmlns:xlink="http://www.w3.org/1999/xlink" x="0px" y="0px"
	 viewBox="0 0 64 64" style="enable-background:new 0 0 64 64;" xml:space="preserve">
<style type="text/css">
	.st0{fill:none;stroke:#231F20;stroke-width:2;stroke-linecap:round;stroke-linejoin:round;stroke-miterlimit:10;}
</style>
<g>
	<g>
		<path class="st0" d="M25.86,24.65v31.74c0,1.7,1.38,3.08,3.08,3.08l0,0c1.7,0,3.08-1.38,3.08-3.08V25.72
			c0-0.92-0.28-1.81-0.8-2.57L20.52,7.64C20.07,7,19.21,6.8,18.53,7.19v0c-0.68,0.39-0.95,1.24-0.62,1.95l7.12,12.4
			C25.58,22.49,25.86,23.56,25.86,24.65z"/>
		<line class="st0" x1="25.86" y1="52.72" x2="32.03" y2="52.72"/>
	</g>
	<g>
		<path class="st0" d="M40.93,59.47L40.93,59.47c-1.7,0-3.08-1.38-3.08-3.08V28.17c0-1.7,1.38-10.17,3.08-10.17l0,0
			c1.7,0,3.08,8.47,3.08,10.17v28.22C44.01,58.09,42.64,59.47,40.93,59.47z"/>
		<line class="st0" x1="40.93" y1="17.99" x2="40.93" y2="11.98"/>
		<path class="st0" d="M44.66,8.25c0-2.06-1.67-3.73-3.73-3.73c-2.06,0-3.73,1.67-3.73,3.73c0,2.06,1.67,3.73,3.73,3.73
			C42.99,11.98,44.66,10.31,44.66,8.25z"/>
		<line class="st0" x1="37.85" y1="52.72" x2="44.01" y2="52.72"/>
	</g>
	<g>
		<path class="st0" d="M53.83,59.47L53.83,59.47c-1.7,0-3.08-1.38-3.08-3.08V28.17c0-1.7,1.38-10.17,3.08-10.17l0,0
			c1.7,0,3.08,8.47,3.08,10.17v28.22C56.91,58.09,55.53,59.47,53.83,59.47z"/>
		<polyline class="st0" points="53.83,17.99 53.83,9.94 59.39,5.96 		"/>
		<line class="st0" x1="50.75" y1="52.72" x2="56.91" y2="52.72"/>
	</g>
	<g>
		<path class="st0" d="M14.45,59.47L14.45,59.47c-1.7,0-3.08-1.38-3.08-3.08V36.11c0-1.7,1.38-10.17,3.08-10.17l0,0
			c1.7,0,3.08,8.47,3.08,10.17v20.29C17.53,58.09,16.15,59.47,14.45,59.47z"/>
		<path class="st0" d="M12.06,10.72c0-2.06-1.67-3.73-3.73-3.73c-2.06,0-3.73,1.67-3.73,3.73c0,2.06,1.67,3.73,3.73,3.73
			C10.39,14.44,12.06,12.78,12.06,10.72z"/>
		<path class="st0" d="M14.45,25.93v-5c0-1.23-0.35-2.43-1-3.46l-2.55-4.05"/>
		<line class="st0" x1="11.37" y1="52.72" x2="17.53" y2="52.72"/>
	</g>
</g>
</svg>
