<?xml version="1.0" encoding="utf-8"?>
<!-- Generator: Adobe Illustrator 25.4.1, SVG Export Plug-In . SVG Version: 6.00 Build 0)  -->
<svg version="1.1" id="Layer_1" xmlns="http://www.w3.org/2000/svg" xmlns:xlink="http://www.w3.org/1999/xlink" x="0px" y="0px"
	 viewBox="0 0 64 64" style="enable-background:new 0 0 64 64;" xml:space="preserve">
<style type="text/css">
	.st0{fill:none;stroke:#231F20;stroke-width:2;stroke-linecap:round;stroke-linejoin:round;stroke-miterlimit:10;}
</style>
<g>
	<path class="st0" d="M46.12,8.08h4.13c2.22,0,4.1,1.64,4.41,3.84l1.61,11.45c0.38,2.68-1.71,5.08-4.41,5.08h-7.35
		c-2.71,0-4.79-2.4-4.41-5.08l1.61-11.45C42.02,9.71,43.9,8.08,46.12,8.08z"/>
	<path class="st0" d="M29.85,8.08h4.13c2.22,0,4.1,1.64,4.41,3.84l1.61,11.45c0.38,2.68-1.71,5.08-4.41,5.08h-7.35
		c-2.71,0-4.79-2.4-4.41-5.08l1.61-11.45C25.75,9.71,27.63,8.08,29.85,8.08z"/>
	<path class="st0" d="M13.59,8.08h4.13c2.22,0,4.1,1.64,4.41,3.84l1.61,11.45c0.38,2.68-1.71,5.08-4.41,5.08h-7.35
		c-2.71,0-4.79-2.4-4.41-5.08l1.61-11.45C9.48,9.71,11.37,8.08,13.59,8.08z"/>
	<line class="st0" x1="13.52" y1="18.02" x2="4.36" y2="18.02"/>
	<line class="st0" x1="46.32" y1="18.02" x2="34.04" y2="18.02"/>
	<line class="st0" x1="59.63" y1="18.02" x2="50.57" y2="18.02"/>
	<line class="st0" x1="29.8" y1="18.02" x2="17.77" y2="18.02"/>
	
		<rect x="46.32" y="15.17" transform="matrix(-1 -1.224647e-16 1.224647e-16 -1 96.8997 35.9737)" class="st0" width="4.25" height="5.63"/>
	
		<rect x="29.79" y="15.17" transform="matrix(-1 -1.224647e-16 1.224647e-16 -1 63.8355 36.0397)" class="st0" width="4.25" height="5.7"/>
	
		<rect x="13.53" y="15.17" transform="matrix(-1 -1.224647e-16 1.224647e-16 -1 31.3027 36.0397)" class="st0" width="4.25" height="5.7"/>
	<g>
		<path class="st0" d="M17.88,55.92h-4.13c-2.22,0-4.1-1.64-4.41-3.84L7.73,40.63c-0.38-2.68,1.71-5.08,4.41-5.08h7.35
			c2.71,0,4.79,2.4,4.41,5.08l-1.61,11.45C21.98,54.29,20.1,55.92,17.88,55.92z"/>
		<path class="st0" d="M34.15,55.92h-4.13c-2.22,0-4.1-1.64-4.41-3.84l-1.61-11.45c-0.38-2.68,1.71-5.08,4.41-5.08h7.35
			c2.71,0,4.79,2.4,4.41,5.08l-1.61,11.45C38.25,54.29,36.37,55.92,34.15,55.92z"/>
		<path class="st0" d="M50.41,55.92h-4.13c-2.22,0-4.1-1.64-4.41-3.84l-1.61-11.45c-0.38-2.68,1.71-5.08,4.41-5.08h7.35
			c2.71,0,4.79,2.4,4.41,5.08l-1.61,11.45C54.52,54.29,52.63,55.92,50.41,55.92z"/>
		<line class="st0" x1="50.47" y1="45.98" x2="59.63" y2="45.98"/>
		<line class="st0" x1="17.67" y1="45.98" x2="29.95" y2="45.98"/>
		<line class="st0" x1="4.36" y1="45.98" x2="13.42" y2="45.98"/>
		<line class="st0" x1="34.2" y1="45.98" x2="46.22" y2="45.98"/>
		<rect x="13.42" y="43.2" class="st0" width="4.25" height="5.63"/>
		<rect x="29.96" y="43.13" class="st0" width="4.25" height="5.7"/>
		<rect x="46.22" y="43.13" class="st0" width="4.25" height="5.7"/>
	</g>
</g>
</svg>
