<?xml version="1.0" encoding="utf-8"?>
<!-- Generator: Adobe Illustrator 25.4.1, SVG Export Plug-In . SVG Version: 6.00 Build 0)  -->
<svg version="1.1" id="Layer_1" xmlns="http://www.w3.org/2000/svg" xmlns:xlink="http://www.w3.org/1999/xlink" x="0px" y="0px"
	 viewBox="0 0 64 64" style="enable-background:new 0 0 64 64;" xml:space="preserve">
<style type="text/css">
	.st0{fill:none;stroke:#231F20;stroke-width:2;stroke-linecap:round;stroke-linejoin:round;stroke-miterlimit:10;}
</style>
<g>
	<path class="st0" d="M35.43,30.43c0.24,1.35,0.26,2.53,0.18,3.49c-0.14,1.71,1.97,2.6,3.06,1.28c0.65-0.79,1.15-2.02,1.19-3.9
		c0.15-5.82,1.29-7.13,3.77-11.84c2.64-5,2.01-14.24-6.5-14.53c-1.08-0.03-2.01,0.36-2.8,0.87c-1.51,0.97-3.41,0.98-4.92,0.01
		c-0.81-0.52-1.76-0.92-2.86-0.88c-8.5,0.28-9.13,9.53-6.5,14.53c2.48,4.7,3.62,6.01,3.77,11.84c0.05,2,0.61,3.26,1.32,4.05
		c1.09,1.2,3.08,0.21,2.94-1.4c-0.08-0.96-0.07-2.15,0.18-3.51c0.78-4.31,3-5.09,3.59-5.21C32.44,25.35,34.66,26.12,35.43,30.43z"/>
	<g>
		<path class="st0" d="M5.15,59.07L35.29,59c6.25-0.28,10.87-4.9,10.87-4.9l12.11-11.54c1.47-1.59,0.05-6.97-3.52-3.9l-2.02,1.5
			l-5.76,4.33c-2.65,2-5.88,3.06-9.2,3.06h-0.91c4.04,0,4.29-5.57-1.08-5.57h-9.16c-6.09-0.34-6.27,4.14-12.05,4.52
			c-0.29,0.02-0.6,0.02-0.92,0.02l-8.51-1.3"/>
		<line class="st0" x1="36.99" y1="47.56" x2="29.55" y2="47.56"/>
	</g>
</g>
</svg>
