<?xml version="1.0" encoding="utf-8"?>
<!-- Generator: Adobe Illustrator 25.4.1, SVG Export Plug-In . SVG Version: 6.00 Build 0)  -->
<svg version="1.1" id="Layer_1" xmlns="http://www.w3.org/2000/svg" xmlns:xlink="http://www.w3.org/1999/xlink" x="0px" y="0px"
	 viewBox="0 0 64 64" style="enable-background:new 0 0 64 64;" xml:space="preserve">
<style type="text/css">
	.st0{fill:none;stroke:#231F20;stroke-width:2;stroke-linecap:round;stroke-linejoin:round;stroke-miterlimit:10;}
</style>
<g>
	<path class="st0" d="M49.46,35.11c-3.67,6.97-5.36,8.91-5.58,17.53c-0.23,8.9-7.15,7.84-7.15,7.84s1.57-3.61,0.58-9.12
		c-0.64-3.57-1.95-5.5-3.13-6.54c-1.23-1.09-3.13-1.09-4.36,0c-1.18,1.04-2.49,2.98-3.14,6.55c-0.99,5.51,0.59,9.12,0.59,9.12
		s-6.93,1.06-7.16-7.84c-0.22-8.62-1.9-10.56-5.57-17.53c-3.91-7.4-2.98-21.1,9.62-21.51c0,0,1.26,5.86,7.84,5.86
		s7.84-5.86,7.84-5.86C52.44,14.01,53.37,27.71,49.46,35.11z"/>
	<path class="st0" d="M39.84,3.52c0,0-1.26,5.86-7.84,5.86s-7.84-5.86-7.84-5.86C25.79,3.46,38.23,3.48,39.84,3.52z"/>
	<line class="st0" x1="32" y1="12.84" x2="32" y2="19.43"/>
</g>
</svg>
