<?xml version="1.0" encoding="utf-8"?>
<!-- Generator: Adobe Illustrator 25.4.1, SVG Export Plug-In . SVG Version: 6.00 Build 0)  -->
<svg version="1.1" id="Layer_1" xmlns="http://www.w3.org/2000/svg" xmlns:xlink="http://www.w3.org/1999/xlink" x="0px" y="0px"
	 viewBox="0 0 64 64" style="enable-background:new 0 0 64 64;" xml:space="preserve">
<style type="text/css">
	.st0{fill:none;stroke:#231F20;stroke-width:2;stroke-linecap:round;stroke-linejoin:round;stroke-miterlimit:10;}
</style>
<g>
	<path class="st0" d="M10.56,21.24c0.09,3.12,0.89,6.21,2.19,8.66c1.11,2.11,2.05,3.8,2.85,5.33"/>
	<path class="st0" d="M15.84,8.94c1.85-1.29,4.25-2.1,7.27-2.2c1.76-0.06,3.27,0.57,4.56,1.4c2.36,1.52,5.46,1.53,7.83,0
		c1.27-0.82,2.76-1.44,4.49-1.4c6.95,0.23,10.61,4.22,11.95,9.12c0.01,0.04,0.02,0.06,0.03,0.1"/>
	<path class="st0" d="M18.73,48.03c0.01,0.25,0.02,0.49,0.03,0.75c0.25,9.59,7.7,8.44,7.7,8.44s-1.7-3.89-0.63-9.82
		c1.24-6.87,4.78-8.11,5.72-8.31c0.94,0.2,4.48,1.44,5.72,8.31c1.07,5.93-0.62,9.82-0.62,9.82s7.45,1.15,7.69-8.44
		c0.16-6.28,1.04-9.27,2.83-12.87"/>
	<path class="st0" d="M61.35,21.27c0,2.58-2.09,4.68-4.68,4.68c-0.4,0-0.79-0.05-1.17-0.16c-0.51,0.97-1.23,1.8-2.1,2.45
		c0.99,0.89,1.62,2.2,1.62,3.65c0,2.74-2.22,4.96-4.96,4.96c-2.61,0-4.75-2.02-4.94-4.57c-0.26,0.04-0.54,0.05-0.82,0.05
		c-3.06,0-5.54-2.47-5.54-5.53c0-2.28,1.38-4.23,3.35-5.07c0.16-1.44,0.74-2.74,1.62-3.78c-0.53-0.58-0.86-1.35-0.86-2.19
		c0-1.81,1.46-3.27,3.27-3.27c1.69,0,3.07,1.27,3.24,2.91c1.83,0.05,3.47,0.78,4.7,1.96c0.74-0.49,1.63-0.78,2.58-0.78
		C59.26,16.59,61.35,18.69,61.35,21.27z"/>
	<path class="st0" d="M23.05,43.23c0.17,0.41,0.26,0.87,0.26,1.34c0,1.98-1.61,3.59-3.6,3.59c-1.7,0-3.12-1.17-3.5-2.75
		c-0.7,0.44-1.53,0.7-2.42,0.7c-2.53,0-4.59-2.06-4.59-4.59c0-2.53,2.05-4.59,4.59-4.59c0.24,0,0.49,0.02,0.71,0.06
		c0.41-1.54,1.81-2.67,3.48-2.67c1.9,0,3.45,1.47,3.58,3.33c0.25-0.07,0.52-0.11,0.8-0.11c1.6,0,2.88,1.29,2.88,2.88
		C25.25,41.79,24.32,42.92,23.05,43.23z"/>
	<path class="st0" d="M21.71,17.5c-0.9,2.44-3.6,3.68-6.03,2.79c-0.24-0.09-0.46-0.19-0.67-0.32c-0.94,1.34-2.68,1.94-4.29,1.34
		c-0.85-0.31-1.51-0.9-1.92-1.62c-0.58,0.97-1.63,1.61-2.83,1.61c-1.83,0-3.31-1.49-3.31-3.31c0-1.78,1.41-3.22,3.17-3.3
		c-0.17-0.57-0.15-1.2,0.07-1.81C6.37,11.57,7.67,10.8,9,10.95c-0.02-0.46,0.06-0.92,0.23-1.38c0.7-1.9,2.83-2.88,4.73-2.18
		c1.63,0.6,2.58,2.23,2.39,3.89c0.83-0.18,1.71-0.13,2.57,0.18C21.36,12.36,22.61,15.06,21.71,17.5z"/>
</g>
</svg>
