<?xml version="1.0" encoding="utf-8"?>
<!-- Generator: Adobe Illustrator 25.4.1, SVG Export Plug-In . SVG Version: 6.00 Build 0)  -->
<svg version="1.1" id="Layer_1" xmlns="http://www.w3.org/2000/svg" xmlns:xlink="http://www.w3.org/1999/xlink" x="0px" y="0px"
	 viewBox="0 0 64 64" style="enable-background:new 0 0 64 64;" xml:space="preserve">
<style type="text/css">
	.st0{fill:none;stroke:#231F20;stroke-width:2;stroke-linecap:round;stroke-linejoin:round;stroke-miterlimit:10;}
</style>
<path class="st0" d="M48.31,23.62H15.69c-0.85,0-1.54-0.69-1.54-1.54v-3.94c0-0.85,0.69-1.54,1.54-1.54h32.61
	c0.85,0,1.54,0.69,1.54,1.54v3.94C49.85,22.92,49.16,23.62,48.31,23.62z"/>
<rect x="16.47" y="23.62" class="st0" width="31.06" height="29.25"/>
<path class="st0" d="M48.31,59.9H15.69c-0.85,0-1.54-0.69-1.54-1.54v-3.94c0-0.85,0.69-1.54,1.54-1.54h32.61
	c0.85,0,1.54,0.69,1.54,1.54v3.94C49.85,59.2,49.16,59.9,48.31,59.9z"/>
<rect x="27.42" y="12.94" class="st0" width="9.15" height="3.65"/>
<path class="st0" d="M37.64,3.87H26.36c-0.63,0-1.14,0.51-1.14,1.14v6.79c0,0.63,0.51,1.14,1.14,1.14h11.28
	c0.63,0,1.14-0.51,1.14-1.14V5.01C38.78,4.38,38.27,3.87,37.64,3.87z"/>
<g>
	<line class="st0" x1="36.14" y1="29.36" x2="21.12" y2="29.36"/>
	<line class="st0" x1="31.59" y1="34.05" x2="21.12" y2="34.05"/>
	<line class="st0" x1="36.14" y1="38.77" x2="21.12" y2="38.77"/>
	<line class="st0" x1="31.59" y1="43.46" x2="21.12" y2="43.46"/>
	<line class="st0" x1="25.32" y1="48.17" x2="21.12" y2="48.17"/>
</g>
</svg>
