<?xml version="1.0" encoding="utf-8"?>
<!-- Generator: Adobe Illustrator 25.4.1, SVG Export Plug-In . SVG Version: 6.00 Build 0)  -->
<svg version="1.1" id="Layer_1" xmlns="http://www.w3.org/2000/svg" xmlns:xlink="http://www.w3.org/1999/xlink" x="0px" y="0px"
	 viewBox="0 0 64 64" style="enable-background:new 0 0 64 64;" xml:space="preserve">
<style type="text/css">
	.st0{fill:none;stroke:#231F20;stroke-width:2;stroke-linecap:round;stroke-linejoin:round;stroke-miterlimit:10;}
</style>
<g>
	<path class="st0" d="M24.88,35.21L14.1,22.77c-0.4-0.46-0.37-1.15,0.06-1.59l1.78-1.77c0.43-0.43,1.12-0.45,1.58-0.06l12.83,11.11"
		/>
	<path class="st0" d="M34.84,34.97l17.82,17.82c1.42,1.42,1.42,3.72,0,5.14c-1.42,1.41-3.71,1.41-5.14-0.01L29.99,40.37"/>
	<path class="st0" d="M15.04,20.3l-5.37-5.37c-1.55-1.55-2.17-3.79-1.63-5.91l2.04-4"/>
	<path class="st0" d="M30.1,40.26l13.02-14.53c0.4-0.46,0.37-1.15-0.06-1.58l-1.77-1.77c-0.43-0.43-1.12-0.46-1.58-0.06L24.97,35.12
		L7.31,52.79c-1.6,1.6-1.4,4.33,0.6,5.62c1.45,0.95,3.39,0.65,4.62-0.58L30.1,40.26z"/>
	<path class="st0" d="M56.04,17.5c-2.3,2.3-6.02,2.3-8.31,0c-2.3-2.3-2.3-6.02,0-8.31c2.3-2.3,6.02-2.3,8.31,0
		C58.33,11.48,58.33,15.21,56.04,17.5z"/>
	<line class="st0" x1="42.17" y1="23.26" x2="47.72" y2="17.5"/>
	<line class="st0" x1="16.04" y1="44.05" x2="21.04" y2="49.32"/>
	<line class="st0" x1="39.21" y1="49.6" x2="44.28" y2="44.4"/>
</g>
</svg>
