<?xml version="1.0" encoding="utf-8"?>
<!-- Generator: Adobe Illustrator 25.4.1, SVG Export Plug-In . SVG Version: 6.00 Build 0)  -->
<svg version="1.1" id="Layer_1" xmlns="http://www.w3.org/2000/svg" xmlns:xlink="http://www.w3.org/1999/xlink" x="0px" y="0px"
	 viewBox="0 0 64 64" style="enable-background:new 0 0 64 64;" xml:space="preserve">
<style type="text/css">
	.st0{fill:none;stroke:#231F20;stroke-width:2;stroke-linecap:round;stroke-linejoin:round;stroke-miterlimit:10;}
</style>
<g>
	<path class="st0" d="M33.71,25.93c0.32,1.78-0.19,2.94-0.19,2.94s2.23,0.34,2.3-2.53c0.07-2.78,0.61-3.41,1.8-5.65
		c1.26-2.39,0.96-6.8-3.1-6.94c-0.52-0.01-0.96,0.17-1.34,0.42c-0.71,0.46-1.64,0.46-2.35,0c-0.39-0.25-0.84-0.44-1.37-0.42
		c-4.06,0.13-4.36,4.55-3.1,6.94c1.19,2.25,1.73,2.87,1.8,5.65c0.07,2.87,2.31,2.53,2.31,2.53s-0.51-1.16-0.19-2.94
		c0.37-2.06,1.43-2.43,1.71-2.49C32.28,23.5,33.34,23.87,33.71,25.93z"/>
	<path class="st0" d="M50.26,21.83C50.26,34.44,32,53.06,32,53.06S13.74,33.88,13.74,21.83c0-10.08,8.17-18.26,18.26-18.26
		C42.08,3.57,50.26,11.74,50.26,21.83z"/>
	<circle class="st0" cx="32" cy="21.32" r="12.88"/>
	<path class="st0" d="M38.14,46.05c8.15,0.94,14.06,3.73,14.06,7.01c0,4.07-9.04,7.37-20.2,7.37s-20.2-3.3-20.2-7.37
		c0-3.3,5.95-6.09,14.16-7.03"/>
	<path class="st0" d="M35.08,49.69c4.07,0.37,7.02,1.46,7.02,2.75c0,1.59-4.52,2.89-10.1,2.89s-10.1-1.3-10.1-2.89
		c0-1.3,2.98-2.39,7.09-2.76"/>
</g>
</svg>
