<?xml version="1.0" encoding="utf-8"?>
<!-- Generator: Adobe Illustrator 25.4.1, SVG Export Plug-In . SVG Version: 6.00 Build 0)  -->
<svg version="1.1" id="Layer_1" xmlns="http://www.w3.org/2000/svg" xmlns:xlink="http://www.w3.org/1999/xlink" x="0px" y="0px"
	 viewBox="0 0 64 64" style="enable-background:new 0 0 64 64;" xml:space="preserve">
<style type="text/css">
	.st0{fill:none;stroke:#231F20;stroke-width:2;stroke-linecap:round;stroke-linejoin:round;stroke-miterlimit:10;}
</style>
<g>
	<path class="st0" d="M37.01,15.51c0,0-1.5-4.8-5.04-7.37c2-1.59,4.95-2.83,9.29-2.69c14.86,0.5,16.11,16.73,11.35,25.39
		c-4.81,8.77-5.95,10.52-6.6,20.67c-0.62,9.81-9.31,9.37-9.31-1.56c0-9.65-4.51-9.11-4.51-9.11s-4.95-0.53-4.95,9.11
		c0,11.03-8.71,11.37-9.33,1.56c-0.65-10.15-2.25-12.46-6.58-20.67C6.72,22.1,7.82,5.94,22.68,5.45c4.35-0.14,7.3,1.12,9.29,2.69"/>
	<polyline class="st0" points="11.09,11.82 13.34,16.3 16.76,17.03 17.15,18.89 19.11,19.92 	"/>
	<polyline class="st0" points="29.65,6.72 28.94,8.42 29.92,10.43 29.43,12.87 	"/>
	<polyline class="st0" points="44.19,30.81 47.14,29.04 47.51,25.33 51.03,25 51.03,21.09 55.08,19.92 	"/>
	<polyline class="st0" points="16.73,42.84 19.11,43.4 20.19,44.57 21.95,43.71 	"/>
</g>
</svg>
