<?xml version="1.0" encoding="utf-8"?>
<!-- Generator: Adobe Illustrator 25.4.1, SVG Export Plug-In . SVG Version: 6.00 Build 0)  -->
<svg version="1.1" id="Layer_1" xmlns="http://www.w3.org/2000/svg" xmlns:xlink="http://www.w3.org/1999/xlink" x="0px" y="0px"
	 viewBox="0 0 64 64" style="enable-background:new 0 0 64 64;" xml:space="preserve">
<style type="text/css">
	.st0{fill:none;stroke:#231F20;stroke-width:2;stroke-linecap:round;stroke-linejoin:round;stroke-miterlimit:10;}
</style>
<g>
	<path class="st0" d="M41.27,50.5H5.92c-1.19,0-2.15-0.96-2.15-2.15v-6.1c0-1.19,0.96-2.15,2.15-2.15h35.35
		c0.84,0,1.53,0.68,1.53,1.53v7.35C42.8,49.81,42.11,50.5,41.27,50.5z"/>
	<polyline class="st0" points="60.75,48.81 42.8,48.81 42.8,41.78 60.75,41.78 	"/>
	<polyline class="st0" points="6.33,40.09 6.33,28.95 39.74,28.95 39.74,40.09 	"/>
	<path class="st0" d="M6.33,28.95c0,0-4.27-2.72-2.76-7.22c0.88-2.62,3.27-4.38,9.55-2.68c12.34,3.34,24.52,0.04,26.62-5.55
		c0,0,7.2,10.21,0,15.45"/>
	<line class="st0" x1="11.96" y1="28.95" x2="11.96" y2="34"/>
	<line class="st0" x1="18.4" y1="28.95" x2="18.4" y2="32.68"/>
	<line class="st0" x1="27.18" y1="28.95" x2="27.18" y2="34"/>
	<line class="st0" x1="33.62" y1="28.95" x2="33.62" y2="32.68"/>
</g>
</svg>
