<?xml version="1.0" encoding="utf-8"?>
<!-- Generator: Adobe Illustrator 25.4.1, SVG Export Plug-In . SVG Version: 6.00 Build 0)  -->
<svg version="1.1" id="Layer_1" xmlns="http://www.w3.org/2000/svg" xmlns:xlink="http://www.w3.org/1999/xlink" x="0px" y="0px"
	 viewBox="0 0 64 64" style="enable-background:new 0 0 64 64;" xml:space="preserve">
<style type="text/css">
	.st0{fill:none;stroke:#231F20;stroke-width:2;stroke-linecap:round;stroke-linejoin:round;stroke-miterlimit:10;}
</style>
<g>
	<path class="st0" d="M4.03,20.45l9.95,14.3c1.14,2.08,3.33,3.36,5.7,3.36h24.9c1.43,0,2.77,0.67,3.62,1.82l6.45,9.41
		c0.53,0.71,1.37,1.13,2.25,1.13h0.61c2.3,0,3.62-2.61,2.27-4.46l-7.02-10.53c-1.31-1.81-3.41-2.87-5.64-2.87H23.17
		c-2.03,0-3.27-0.8-4.96-2.79L8.9,17.64c-0.51-0.84-1.42-1.36-2.4-1.36l0,0C4.35,16.29,3,18.58,4.03,20.45z"/>
	<polygon class="st0" points="39.82,38.12 30.21,38.12 24.51,52.21 41.04,52.21 	"/>
	<polygon class="st0" points="45.44,52.21 20.11,52.21 18.89,56.51 46.66,56.51 	"/>
	<line class="st0" x1="40.28" y1="43.47" x2="47.06" y2="38.87"/>
	<path class="st0" d="M32.85,9.87h12.32c1.08,0,1.95,0.87,1.95,1.94v13.58"/>
	<line class="st0" x1="47.12" y1="32.61" x2="47.12" y2="28.43"/>
	<path class="st0" d="M22.62,10.21c2.03-2.9,6.02-3.6,8.92-1.57l0,0c2.9,2.03,3.6,6.02,1.57,8.92L22.62,10.21z"/>
	<rect x="33.59" y="25.4" class="st0" width="19.81" height="3.03"/>
</g>
<line class="st0" x1="42.64" y1="28.43" x2="42.64" y2="32.61"/>
<line class="st0" x1="36.89" y1="23.81" x2="36.89" y2="25.39"/>
<line class="st0" x1="40.46" y1="23.81" x2="40.46" y2="25.39"/>
</svg>
