<?xml version="1.0" encoding="utf-8"?>
<!-- Generator: Adobe Illustrator 25.4.1, SVG Export Plug-In . SVG Version: 6.00 Build 0)  -->
<svg version="1.1" id="Layer_1" xmlns="http://www.w3.org/2000/svg" xmlns:xlink="http://www.w3.org/1999/xlink" x="0px" y="0px"
	 viewBox="0 0 64 64" style="enable-background:new 0 0 64 64;" xml:space="preserve">
<style type="text/css">
	.st0{fill:none;stroke:#231F20;stroke-width:2;stroke-linecap:round;stroke-linejoin:round;stroke-miterlimit:10;}
</style>
<g>
	<path class="st0" d="M42.36,31.64c0.44,2.44-0.26,4.04-0.26,4.04s3.06,0.47,3.16-3.47c0.1-3.81,0.84-4.67,2.47-7.76
		c1.73-3.27,1.32-9.33-4.26-9.52c-0.71-0.02-1.32,0.24-1.85,0.57c-0.98,0.63-2.25,0.63-3.22,0c-0.53-0.34-1.15-0.6-1.88-0.57
		c-5.57,0.18-5.99,6.24-4.26,9.52c1.63,3.08,2.37,3.94,2.47,7.76c0.1,3.94,3.17,3.47,3.17,3.47s-0.7-1.6-0.26-4.04
		c0.51-2.82,1.97-3.33,2.35-3.42C40.4,28.3,41.85,28.81,42.36,31.64z"/>
	<polyline class="st0" points="41.56,6.59 54.44,6.59 54.44,60.17 9.56,60.17 9.56,6.59 22.44,6.59 	"/>
	<rect x="22.44" y="3.83" class="st0" width="19.12" height="6.35"/>
	<line class="st0" x1="14.28" y1="18.19" x2="25.78" y2="18.19"/>
	<line class="st0" x1="14.28" y1="23.56" x2="25.78" y2="23.56"/>
	<line class="st0" x1="14.28" y1="29.55" x2="29.45" y2="29.55"/>
	<line class="st0" x1="14.28" y1="35.69" x2="29.45" y2="35.69"/>
	<line class="st0" x1="14.28" y1="42.18" x2="50.41" y2="42.18"/>
	<line class="st0" x1="14.28" y1="47.69" x2="50.41" y2="47.69"/>
	<line class="st0" x1="14.28" y1="53.61" x2="50.41" y2="53.61"/>
</g>
</svg>
