<?xml version="1.0" encoding="utf-8"?>
<!-- Generator: Adobe Illustrator 25.4.1, SVG Export Plug-In . SVG Version: 6.00 Build 0)  -->
<svg version="1.1" id="Layer_1" xmlns="http://www.w3.org/2000/svg" xmlns:xlink="http://www.w3.org/1999/xlink" x="0px" y="0px"
	 viewBox="0 0 64 64" style="enable-background:new 0 0 64 64;" xml:space="preserve">
<style type="text/css">
	.st0{fill:none;stroke:#231F20;stroke-width:2;stroke-linecap:round;stroke-linejoin:round;stroke-miterlimit:10;}
</style>
<g>
	<path class="st0" d="M18.35,8.8c0,0-2.64,0.92-4.12,4.44"/>
	<path class="st0" d="M38.27,48.87c1.17,6.5-0.68,10.76-0.68,10.76s8.16,1.26,8.43-9.25c0.26-10.17,2.25-12.46,6.59-20.68
		c4.61-8.73,3.51-24.89-11.36-25.38c-1.89-0.05-3.53,0.63-4.92,1.53c-2.6,1.68-5.99,1.67-8.58,0c-1.42-0.91-3.07-1.6-5-1.53
		C7.89,4.81,6.79,20.97,11.4,29.7c4.34,8.22,6.32,10.51,6.58,20.68c0.27,10.51,8.44,9.25,8.44,9.25s-1.86-4.26-0.69-10.76
		c1.36-7.53,5.24-8.89,6.27-9.11C33.03,39.98,36.91,41.34,38.27,48.87z"/>
	<path class="st0" d="M16.96,41.67c2.21-1.42,3.69-4.01,3.69-6.97c0-4.5-3.42-8.15-7.63-8.15c-0.97,0-1.9,0.19-2.75,0.54"/>
	<path class="st0" d="M40.09,4.39c-0.03,0.25-0.04,0.51-0.04,0.77c0,4.51,3.42,8.16,7.63,8.16c2.08,0,3.97-0.89,5.34-2.34"/>
	<path class="st0" d="M46.34,26.05c0,3.6-2.73,6.52-6.1,6.52c-3.37,0-6.1-2.92-6.1-6.52s2.73-6.52,6.1-6.52
		C43.61,19.53,46.34,22.45,46.34,26.05z"/>
</g>
</svg>
