<?xml version="1.0" encoding="utf-8"?>
<!-- Generator: Adobe Illustrator 25.4.1, SVG Export Plug-In . SVG Version: 6.00 Build 0)  -->
<svg version="1.1" id="Layer_1" xmlns="http://www.w3.org/2000/svg" xmlns:xlink="http://www.w3.org/1999/xlink" x="0px" y="0px"
	 viewBox="0 0 64 64" style="enable-background:new 0 0 64 64;" xml:space="preserve">
<style type="text/css">
	.st0{fill:none;stroke:#231F20;stroke-width:2;stroke-linecap:round;stroke-linejoin:round;stroke-miterlimit:10;}
</style>
<g>
	<path class="st0" d="M48.16,11.75C46.21,7.61,42.37,4.53,36,4.32c-1.89-0.05-3.53,0.63-4.92,1.53c-2.6,1.68-5.99,1.67-8.58,0
		c-1.42-0.91-3.07-1.6-5-1.53C2.64,4.81,1.54,20.97,6.15,29.7c4.34,8.22,6.32,10.51,6.58,20.68c0.27,10.51,8.44,9.25,8.44,9.25
		s-1.86-4.26-0.69-10.76c1.36-7.53,5.24-8.89,6.27-9.11c1.03,0.22,4.91,1.58,6.27,9.11c1.17,6.5-0.68,10.76-0.68,10.76
		s8.16,1.26,8.43-9.25c0.26-10.17,2.25-12.46,6.59-20.68c0.73-1.39,1.32-2.97,1.73-4.64"/>
	<path class="st0" d="M18.98,20.4L32,34.62c0,0,8.2-15.7,28.26-20.68c0,0-16.83-0.88-29.51,11.93L18.98,20.4z"/>
	<path class="st0" d="M12.02,9.79c0,0-2.84,0.88-4.11,6.07"/>
</g>
</svg>
