<?xml version="1.0" encoding="utf-8"?>
<!-- Generator: Adobe Illustrator 25.4.1, SVG Export Plug-In . SVG Version: 6.00 Build 0)  -->
<svg version="1.1" id="Layer_1" xmlns="http://www.w3.org/2000/svg" xmlns:xlink="http://www.w3.org/1999/xlink" x="0px" y="0px"
	 viewBox="0 0 64 64" style="enable-background:new 0 0 64 64;" xml:space="preserve">
<style type="text/css">
	.st0{fill:none;stroke:#231F20;stroke-width:2;stroke-linecap:round;stroke-linejoin:round;stroke-miterlimit:10;}
</style>
<g>
	<path class="st0" d="M34.58,43.28c0.55,2.93-0.32,4.86-0.32,4.86s3.81,0.57,3.94-4.18c0.12-4.59,1.05-5.62,3.08-9.33
		c2.16-3.94,1.64-11.24-5.31-11.46c-0.88-0.02-1.65,0.28-2.3,0.69c-1.22,0.76-2.8,0.75-4.01,0c-0.66-0.41-1.44-0.72-2.34-0.69
		c-6.95,0.22-7.46,7.52-5.31,11.46c2.03,3.71,2.95,4.74,3.08,9.33c0.13,4.74,3.95,4.18,3.95,4.18s-0.87-1.92-0.32-4.86
		c0.64-3.4,2.45-4.01,2.93-4.11C32.13,39.27,33.95,39.88,34.58,43.28z"/>
	<path class="st0" d="M55.77,53.9H8.23c-1.51,0-2.73-1.22-2.73-2.73V17.1c0-1.51,1.22-2.73,2.73-2.73h47.54
		c1.51,0,2.73,1.22,2.73,2.73v34.07C58.5,52.68,57.28,53.9,55.77,53.9z"/>
	<path class="st0" d="M15.06,18.65c-1.62,0-2.93-1.91-2.93-4.27s1.31-4.27,2.93-4.27c1.62,0,2.93,1.91,2.93,4.27"/>
	<path class="st0" d="M26.04,18.65c-1.62,0-2.93-1.91-2.93-4.27s1.31-4.27,2.93-4.27c1.62,0,2.93,1.91,2.93,4.27"/>
	<path class="st0" d="M37.33,18.65c-1.62,0-2.93-1.91-2.93-4.27s1.31-4.27,2.93-4.27c1.62,0,2.93,1.91,2.93,4.27"/>
	<path class="st0" d="M48.32,18.65c-1.62,0-2.93-1.91-2.93-4.27s1.31-4.27,2.93-4.27c1.62,0,2.93,1.91,2.93,4.27"/>
</g>
</svg>
