<?xml version="1.0" encoding="utf-8"?>
<!-- Generator: Adobe Illustrator 25.4.1, SVG Export Plug-In . SVG Version: 6.00 Build 0)  -->
<svg version="1.1" id="Layer_1" xmlns="http://www.w3.org/2000/svg" xmlns:xlink="http://www.w3.org/1999/xlink" x="0px" y="0px"
	 viewBox="0 0 64 64" style="enable-background:new 0 0 64 64;" xml:space="preserve">
<style type="text/css">
	.st0{fill:none;stroke:#231F20;stroke-width:2;stroke-linecap:round;stroke-linejoin:round;stroke-miterlimit:10;}
</style>
<g>
	<path class="st0" d="M32,43.83c20.46,0,27.3-16.47,27.3-16.47c-2.23,0.56-8.94-0.56-17.82-6.24C35.76,17.46,32,25.58,32,25.58
		s-3.72-8.06-9.48-4.46c-9.25,5.77-15.58,6.24-17.82,6.24C4.7,27.36,11.54,43.83,32,43.83z"/>
	<path class="st0" d="M32,30.08c16.21,0.12,27.3-2.72,27.3-2.72s-6.16,9.56-27.3,9.95c-21.14-0.39-27.3-9.95-27.3-9.95
		S15.77,30.08,32,30.08z"/>
	<line class="st0" x1="13.58" y1="28.9" x2="13.58" y2="33.78"/>
	<line class="st0" x1="19.43" y1="29.54" x2="19.43" y2="35.75"/>
	<line class="st0" x1="25.45" y1="29.94" x2="25.45" y2="36.86"/>
	<line class="st0" x1="32" y1="30.08" x2="32" y2="37.31"/>
	<line class="st0" x1="50.69" y1="33.67" x2="50.69" y2="28.91"/>
	<line class="st0" x1="44.84" y1="35.68" x2="44.84" y2="29.56"/>
	<line class="st0" x1="38.82" y1="36.82" x2="38.82" y2="29.96"/>
	<path class="st0" d="M5.24,24.36c0,0,0.06,3.87-2.42,5.57"/>
	<path class="st0" d="M58.76,24.36c0,0-0.06,3.87,2.42,5.57"/>
</g>
</svg>
