<?xml version="1.0" encoding="utf-8"?>
<!-- Generator: Adobe Illustrator 25.4.1, SVG Export Plug-In . SVG Version: 6.00 Build 0)  -->
<svg version="1.1" id="Layer_1" xmlns="http://www.w3.org/2000/svg" xmlns:xlink="http://www.w3.org/1999/xlink" x="0px" y="0px"
	 viewBox="0 0 64 64" style="enable-background:new 0 0 64 64;" xml:space="preserve">
<style type="text/css">
	.st0{fill:none;stroke:#231F20;stroke-width:2;stroke-linecap:round;stroke-linejoin:round;stroke-miterlimit:10;}
</style>
<g>
	<path class="st0" d="M11.66,55.14l7.97-21.05c0.89-2.34,2.61-4.27,4.85-5.41l15.21-7.77c1.14-0.63,1.85-1.84,1.85-3.14v-3.91
		c0-1.24-0.65-2.39-1.71-3.03l-4.36-2.61c-1-0.6-1.31-1.9-0.68-2.89l0,0c0.55-0.86,1.65-1.19,2.58-0.77l6.26,2.8
		c2.73,1.22,4.48,3.93,4.48,6.91v4.06c0,2.47-1.17,4.79-3.14,6.27L27.9,36.79c-1.15,0.82-2.07,1.91-2.69,3.18l-7.38,17.61
		c-0.52,1.23-1.72,2.03-3.06,2.03l0,0C12.45,59.63,10.84,57.3,11.66,55.14z"/>
	<path class="st0" d="M39.38,28.61l0.14,0.07c2.23,1.13,3.95,3.07,4.84,5.41l7.98,21.05c0.15,0.39,0.21,0.79,0.21,1.17
		c0,1.76-1.41,3.32-3.32,3.32c-1.33,0-2.54-0.8-3.06-2.03l-7.39-17.62c-0.62-1.27-1.54-2.36-2.69-3.19L32,33.86"/>
	<path class="st0" d="M24.63,28.61l-5.61-4.01c-1.98-1.48-3.14-3.8-3.14-6.28v-4.07c0-2.99,1.76-5.69,4.48-6.91l6.27-2.79
		c0.27-0.12,0.55-0.18,0.85-0.18c0.68,0,1.34,0.34,1.74,0.95c0.63,0.99,0.32,2.29-0.68,2.89l-4.36,2.62
		c-1.07,0.64-1.72,1.79-1.72,3.03v3.91c0,1.3,0.71,2.5,1.85,3.14l7.7,3.93"/>
	<circle class="st0" cx="31.62" cy="29.61" r="2.39"/>
</g>
</svg>
