<?xml version="1.0" encoding="utf-8"?>
<!-- Generator: Adobe Illustrator 25.4.1, SVG Export Plug-In . SVG Version: 6.00 Build 0)  -->
<svg version="1.1" id="Layer_1" xmlns="http://www.w3.org/2000/svg" xmlns:xlink="http://www.w3.org/1999/xlink" x="0px" y="0px"
	 viewBox="0 0 64 64" style="enable-background:new 0 0 64 64;" xml:space="preserve">
<style type="text/css">
	.st0{fill:none;stroke:#231F20;stroke-width:2;stroke-linecap:round;stroke-linejoin:round;stroke-miterlimit:10;}
</style>
<g>
	<path class="st0" d="M22.1,41.86c0.37,2.03,0.22,3.68,0.01,4.78c-0.16,0.84,0.63,1.54,1.45,1.28c1.35-0.43,2.94-1.68,3.03-5.18
		c0.15-5.9,1.3-7.22,3.82-11.99c2.67-5.06,2.04-14.43-6.59-14.72c-1.09-0.03-2.04,0.36-2.84,0.88c-1.53,0.99-3.46,0.99-4.99,0.01
		c-0.82-0.53-1.78-0.93-2.9-0.89c-8.62,0.28-9.25,9.65-6.58,14.72c2.52,4.77,3.66,6.09,3.82,11.99c0.09,3.5,1.69,4.75,3.04,5.18
		c0.81,0.26,1.61-0.44,1.44-1.28c-0.21-1.09-0.35-2.75,0.01-4.77c0.31-1.73,0.86-2.9,1.44-3.69c1.08-1.47,3.32-1.47,4.4,0
		C21.24,38.96,21.78,40.13,22.1,41.86z"/>
	<path class="st0" d="M48.78,41.86c0.37,2.03,0.22,3.68,0.01,4.78c-0.16,0.84,0.63,1.54,1.45,1.28c1.35-0.43,2.94-1.68,3.03-5.18
		c0.15-5.9,1.3-7.22,3.82-11.99c2.67-5.06,2.04-14.43-6.59-14.72c-1.09-0.03-2.04,0.36-2.84,0.88c-1.53,0.99-3.46,0.99-4.99,0.01
		c-0.82-0.53-1.78-0.93-2.9-0.89c-8.62,0.28-9.25,9.65-6.58,14.72c2.52,4.77,3.66,6.09,3.82,11.99c0.09,3.5,1.69,4.75,3.04,5.18
		c0.81,0.26,1.61-0.44,1.44-1.28c-0.21-1.09-0.35-2.75,0.01-4.77c0.31-1.73,0.86-2.9,1.44-3.69c1.08-1.47,3.32-1.47,4.4,0
		C47.93,38.96,48.47,40.13,48.78,41.86z"/>
	<rect x="16.02" y="23.77" class="st0" width="4.89" height="6.98"/>
	<rect x="42.7" y="23.77" class="st0" width="4.89" height="6.98"/>
	<line class="st0" x1="2.55" y1="27.26" x2="61.45" y2="27.26"/>
</g>
</svg>
