<?xml version="1.0" encoding="utf-8"?>
<!-- Generator: Adobe Illustrator 25.4.1, SVG Export Plug-In . SVG Version: 6.00 Build 0)  -->
<svg version="1.1" id="Layer_1" xmlns="http://www.w3.org/2000/svg" xmlns:xlink="http://www.w3.org/1999/xlink" x="0px" y="0px"
	 viewBox="0 0 64 64" style="enable-background:new 0 0 64 64;" xml:space="preserve">
<style type="text/css">
	.st0{fill:none;stroke:#231F20;stroke-width:2;stroke-linecap:round;stroke-linejoin:round;stroke-miterlimit:10;}
</style>
<g>
	<g>
		<path class="st0" d="M43.55,55.28c-1.97,6.69-8.83,5.26-8.83-4.45c0-9.65-4.51-9.11-4.51-9.11s-4.95-0.53-4.95,9.11
			c0,11.03-8.71,11.37-9.33,1.56c-0.65-10.15-2.25-12.46-6.58-20.67C4.74,22.98,5.84,6.82,20.71,6.32c4.35-0.14,7.3,1.12,9.29,2.69"
			/>
		<path class="st0" d="M35.03,16.39c0,0-1.5-4.8-5.04-7.37c2-1.59,4.95-2.83,9.29-2.69c3.72,0.12,6.58,1.23,8.71,2.96"/>
		<path class="st0" d="M16.31,10.81c0,0-2.64,0.92-4.12,4.44"/>
	</g>
	<rect x="46.16" y="20.67" class="st0" width="10.89" height="31.4"/>
	<line class="st0" x1="49.6" y1="52.07" x2="49.6" y2="59.44"/>
	<line class="st0" x1="53.39" y1="52.07" x2="53.39" y2="59.44"/>
	<line class="st0" x1="55.67" y1="59.44" x2="47.55" y2="59.44"/>
	<polyline class="st0" points="47.72,20.67 47.72,16.75 55.49,16.75 55.49,20.67 	"/>
	<line class="st0" x1="51.61" y1="16.75" x2="51.61" y2="4.56"/>
	<line class="st0" x1="46.16" y1="26.04" x2="48.51" y2="26.04"/>
	<line class="st0" x1="46.16" y1="30.05" x2="50.83" y2="30.05"/>
	<line class="st0" x1="46.16" y1="34.32" x2="48.51" y2="34.32"/>
	<line class="st0" x1="46.16" y1="38.33" x2="50.83" y2="38.33"/>
	<line class="st0" x1="46.16" y1="42.7" x2="48.51" y2="42.7"/>
	<line class="st0" x1="46.16" y1="46.71" x2="50.83" y2="46.71"/>
</g>
</svg>
